# xmcd
#
# Track frame offsets:
#	150
#	17497
#	33430
#	48542
#
# Disc length: 862 seconds
#
# Revision: 1
# Processed by: cddbd v1.5.2PL0 Copyright (c) Steve Scherf et al.
# Submitted via: audiograbber 1.83.01
#
DISCID=28035c04
DTITLE=Various Artist - Tatuoitu Ruusu - Lokki [CDS)
DYEAR=1995
DGENRE=Pop
TTITLE0=Kaija Pohjola - Tatuoitu Ruusu
TTITLE1=Kaija Pohjola - Sä Haluat Mut, Mä Haluan Sut
TTITLE2=Nalle Lehtonen - Lokki
TTITLE3=Nalle Lehtonen - Rakkaudella
EXTD=TR.
EXTT0=
EXTT1=
EXTT2=
EXTT3=
PLAYORDER=
